<?xml version="1.0" standalone="no"?>
<!DOCTYPE svg PUBLIC "-//W3C//DTD SVG 20010904//EN"
 "http://www.w3.org/TR/2001/REC-SVG-20010904/DTD/svg10.dtd">
<svg version="1.0" xmlns="http://www.w3.org/2000/svg"
 width="1280.000000pt" height="640.000000pt" viewBox="0 0 1280.000000 640.000000"
 preserveAspectRatio="xMidYMid meet">
<g transform="translate(0.000000,640.000000) scale(0.100000,-0.100000)"
fill="#000000" stroke="none">
<path d="M2670 5799 c-877 -62 -1673 -522 -2137 -1235 -204 -313 -332 -665
-378 -1036 -43 -345 -3 -734 110 -1073 123 -373 324 -694 615 -986 213 -214
417 -363 685 -500 308 -158 587 -245 946 -295 173 -24 565 -24 739 0 532 74
1010 275 1410 594 113 90 311 286 400 396 94 117 219 308 285 437 32 63 63
117 69 121 6 4 167 8 359 8 l347 0 0 210 c0 121 4 210 9 210 5 0 136 -50 291
-111 169 -66 292 -109 308 -107 22 2 49 37 164 208 77 113 145 206 152 208 7
2 67 -80 136 -183 68 -103 132 -191 141 -196 10 -5 31 -9 47 -9 26 0 53 25
203 190 95 105 179 190 186 190 12 0 103 -78 447 -382 l100 -88 117 0 117 0
308 245 c169 135 311 245 315 245 4 0 87 -87 185 -192 97 -106 189 -206 205
-222 25 -26 34 -29 80 -27 48 2 63 9 180 92 70 49 132 89 139 89 6 0 88 -30
183 -66 l172 -66 170 6 170 6 34 37 c122 135 375 393 384 393 7 -1 80 -87 162
-193 l151 -192 102 0 102 0 509 660 510 660 1 193 0 192 -3595 0 -3595 0 -40
80 c-392 779 -1140 1317 -2030 1459 -232 37 -436 47 -670 30z m-930 -1875
c190 -43 378 -192 470 -374 54 -107 74 -194 74 -315 0 -131 -18 -207 -74 -320
-115 -233 -329 -377 -593 -401 -256 -23 -532 125 -670 357 -207 351 -63 820
308 999 94 45 145 60 240 69 87 8 161 3 245 -15z"/>
</g>
</svg>
